<svg version="1.1" id="Layer_1" xmlns="http://www.w3.org/2000/svg" xmlns:xlink="http://www.w3.org/1999/xlink" x="0px" y="0px" viewBox="0 0 500 500" style="width: 188px;" xml:space="preserve" data-imageid="phone-maintenance-66" imageName="Phone Maintenance" class="illustrations_image">
<style type="text/css">
	.st0_phone-maintenance-66{fill:#CCA8FF;}
	.st1_phone-maintenance-66{fill:url(#SVGID_1_);}
	.st2_phone-maintenance-66{fill:url(#SVGID_00000183927472941851921240000005044969832237458094_);}
	.st3_phone-maintenance-66{fill:url(#SVGID_00000148636965305491463530000011880173318699664034_);}
	.st4_phone-maintenance-66{fill:url(#SVGID_00000088853861712258785000000003846882340162371235_);}
	.st5_phone-maintenance-66{fill:#68E1FD;}
	.st6_phone-maintenance-66{opacity:0.33;fill:#34323D;enable-background:new    ;}
	.st7_phone-maintenance-66{fill:#F4F4F4;}
	.st8_phone-maintenance-66{fill:#BABABC;}
	.st9_phone-maintenance-66{fill:#CCCCCC;}
	.st10_phone-maintenance-66{opacity:0.77;fill:#34323D;enable-background:new    ;}
	.st11_phone-maintenance-66{fill:#FCBF81;}
	.st12_phone-maintenance-66{fill:#34323D;}
	.st13_phone-maintenance-66{fill:#8FDB5E;}
	.st14_phone-maintenance-66{fill:#1E8C0E;}
</style>
<g id="background_phone-maintenance-66">
	<path class="st0_phone-maintenance-66" d="M243.2,388.7L20.9,257.3c-7.1-4-13.1-10.5-6.2-14.8L237.7,114c3.4-2.1,8.4-3.4,11.8-1.5L482.9,248&#10;&#9;&#9;c7.1,4.1,8.4,15.6,1.3,19.7L272.5,388.5C263.4,393.7,252.3,393.8,243.2,388.7z"/>
	
		<linearGradient id="SVGID_1_-phone-maintenance-66" gradientUnits="userSpaceOnUse" x1="68.0625" y1="236.6665" x2="113.7025" y2="269.8165" gradientTransform="matrix(1 0 0 -1 0 502)">
		<stop offset="0" style="stop-color:#CCA8FF"/>
		<stop offset="1" style="stop-color:#2E3192"/>
	</linearGradient>
	<polygon class="st1_phone-maintenance-66" points="121.6,244 69.4,274.1 48.8,261.7 85.4,239 &#9;"/>
	
		<linearGradient id="SVGID_00000076602378950144311340000008912012730180271793_-phone-maintenance-66" gradientUnits="userSpaceOnUse" x1="408.2393" y1="230.7009" x2="436.9893" y2="251.5809" gradientTransform="matrix(1 0 0 -1 0 502)">
		<stop offset="0" style="stop-color:#CCA8FF"/>
		<stop offset="1" style="stop-color:#2E3192"/>
	</linearGradient>
	<polygon style="fill:url(#SVGID_00000076602378950144311340000008912012730180271793_);" points="444.3,261 414.4,278.3 &#10;&#9;&#9;393.8,265.9 423.1,247.7 &#9;"/>
	
		<linearGradient id="SVGID_00000127038865082766551480000007881928220476842416_-phone-maintenance-66" gradientUnits="userSpaceOnUse" x1="270.6864" y1="230.5079" x2="299.7464" y2="269.8579" gradientTransform="matrix(1 0 0 -1 0 502)">
		<stop offset="0" style="stop-color:#CCA8FF"/>
		<stop offset="1" style="stop-color:#2E3192"/>
	</linearGradient>
	<path style="fill:url(#SVGID_00000127038865082766551480000007881928220476842416_);" d="M270.3,224l-47,26.5&#10;&#9;&#9;c0,0,45.2,27.8,71,43.5l41-24.9"/>
	
		<linearGradient id="SVGID_00000086664823721242549410000015227382039374850434_-phone-maintenance-66" gradientUnits="userSpaceOnUse" x1="228.1559" y1="176.3133" x2="253.8859" y2="207.7933" gradientTransform="matrix(1 0 0 -1 0 502)">
		<stop offset="0" style="stop-color:#CCA8FF"/>
		<stop offset="1" style="stop-color:#2E3192"/>
	</linearGradient>
	<path style="fill:url(#SVGID_00000086664823721242549410000015227382039374850434_);" d="M201.4,317.3c-0.3-0.2-0.5-0.4-0.7-0.5&#10;&#9;&#9;l40.4-26.5l31.5,23.7l-34.2,24.5C226.5,330.5,213.1,325.5,201.4,317.3z"/>
</g>
<g id="phone_phone-maintenance-66">
	<path class="st5_phone-maintenance-66 targetColor" d="M338.6,83.4l-64.7-38.2c-1.9-1-4.2-1.1-6.2-0.4l0,0h-0.1c-0.5,0.2-0.9,0.4-1.4,0.6l-6.1,2.7l3.3,1.4l0,0&#10;&#9;&#9;l2,165.6c0,5.9,3.2,11.4,8.3,14.4l60.4,35.2l-0.9,5.7l8.2-4.3l0,0c1.6-0.9,2.6-2.6,2.6-4.4v-169C343.9,88.8,341.9,85.3,338.6,83.4z&#10;&#9;&#9;" style="fill: rgb(104, 225, 253);"/>
	<path class="st6_phone-maintenance-66" d="M338.6,83.4l-64.7-38.2c-1.9-1-4.2-1.1-6.2-0.4l0,0h-0.1c-0.5,0.2-0.9,0.4-1.4,0.6l-6.1,2.7l3.3,1.4l0,0&#10;&#9;&#9;l2,165.6c0,5.9,3.2,11.4,8.3,14.4l60.4,35.2l-0.9,5.7l8.2-4.3l0,0c1.6-0.9,2.6-2.6,2.6-4.4v-169C343.9,88.8,341.9,85.3,338.6,83.4z&#10;&#9;&#9;"/>
	<path class="st7_phone-maintenance-66" d="M328.5,270.2l-62.6-36.5c-5.1-3-8.3-8.5-8.3-14.4V52c0-2.4,2-4.4,4.4-4.4c0.8,0,1.6,0.2,2.3,0.6l66.5,39.3&#10;&#9;&#9;c3.3,1.9,5.3,5.4,5.3,9.2v169c0,2.8-2.2,5.1-5,5.1C330.2,270.9,329.3,270.6,328.5,270.2z"/>
	<polygon class="st5_phone-maintenance-66 targetColor" points="332.1,107 260.8,66.1 260.8,212.4 332.1,253.6 &#9;" style="fill: rgb(104, 225, 253);"/>
	<ellipse transform="matrix(0.9727 -0.2323 0.2323 0.9727 -47.5976 73.853)" class="st8_phone-maintenance-66" cx="289.8" cy="239.1" rx="3.3" ry="4.4"/>
	<path class="st9_phone-maintenance-66" d="M287.1,73.1L287.1,73.1c0,0.6,0.3,1.1,0.8,1.4l13.8,7.9c0.8,0.4,1.7,0.2,2.2-0.6c0.1-0.3,0.2-0.5,0.2-0.8v-0.3&#10;&#9;&#9;c0-0.6-0.3-1.1-0.8-1.4l-13.8-7.6c-0.8-0.4-1.7-0.1-2.2,0.6C287.2,72.6,287.2,72.9,287.1,73.1z"/>
	<ellipse transform="matrix(0.9378 -0.3471 0.3471 0.9378 -6.4538 101.7555)" class="st9_phone-maintenance-66" cx="280.8" cy="68.9" rx="1.6" ry="2.1"/>
	<path class="st6_phone-maintenance-66" d="M277.9,157.2l-0.5-1.9l-6-3.3v-10.2c0-0.2,5.8,3.4,5.8,3.4l0.3-0.6c0.3-1.6,0.9-3,1.8-4.4l-4.2-7.8l5.3-4.1&#10;&#9;&#9;l4,8l0,0c1.5-0.3,3-0.3,4.4,0.1v-7.7l7.6,4.2v8c1.5,1.4,2.9,3,4.1,4.7l4.6-2.9l5.2,9.9l-4.1,3.3l0.4,1.7c0.5,1.8,1,3.5,1.3,5.4&#10;&#9;&#9;l6.1,3.4v10.1l-5.8-3.4c-0.3,1.8-0.9,3.6-1.9,5.2l4.4,7.4L305,190l-3.9-7.6h-4.8v7.6l-7.3-4.5V178c-1.7-1.6-3.1-3.5-4.4-5.4l-4.4,3&#10;&#9;&#9;l-5.3-10.1l4.4-3.2l-0.4-1.5C278.5,159.5,278.1,158.4,277.9,157.2z"/>
	
		<ellipse transform="matrix(0.9307 -0.3657 0.3657 0.9307 -38.0227 117.77)" class="st5_phone-maintenance-66 targetColor" cx="291.9" cy="159.3" rx="6.1" ry="10.5" style="fill: rgb(104, 225, 253);"/>
	<path class="st6_phone-maintenance-66" d="M306.5,123.1l-0.3-0.9l-3-1.6v-5.1c0-0.1,2.9,1.7,2.9,1.7l0.1-0.3c0.2-0.8,0.5-1.5,0.9-2.2l-2.1-3.9l2.7-2l2,4&#10;&#9;&#9;l0,0c0.7-0.2,1.5-0.2,2.2,0V109l3.8,2.1v4c0.7,0.7,1.4,1.5,2,2.3l2.3-1.5l2.6,4.9l-2.1,1.6l0.2,0.8c0.3,0.9,0.5,1.8,0.6,2.7&#10;&#9;&#9;l3.1,1.7v5.1l-2.9-1.7c-0.1,0.9-0.4,1.8-0.9,2.6l2.2,3.7l-2.8,2.1l-2-3.8h-2.4v3.8l-3.6-2.2v-3.8c-0.8-0.8-1.6-1.7-2.2-2.7&#10;&#9;&#9;l-2.2,1.5l-2.6-5l2.2-1.6l-0.2-0.8C306.8,124.3,306.6,123.7,306.5,123.1z"/>
	<ellipse transform="matrix(0.9307 -0.3657 0.3657 0.9307 -23.6958 123.2514)" class="st5_phone-maintenance-66 targetColor" cx="313.5" cy="124.2" rx="3" ry="5.2" style="fill: rgb(104, 225, 253);"/>
</g>
<g id="gear_phone-maintenance-66">
	<path class="st5_phone-maintenance-66 targetColor" d="M209.1,195.6l-14.5,7.6l-12.2-8.3l13.6-7.6c0,0-13.8-3.8-24.1,2.6s-7.1,10.7-9.8,13.8s-77.6,41.2-77.6,41.2&#10;&#9;&#9;c-0.9,0.7-1.6,1.4-2.3,2.2l-2.1-2.2v6.4c-0.1,0.6-0.1,1.2,0,1.8v0.1l0,0c0.3,1.3,1,2.5,1.9,3.4c6.1,6,14.2,1.8,24.8-3.9&#10;&#9;&#9;s59.7-33.1,59.7-33.1s8.1-5.5,13.1-5.4c4.1,0.1,26.2,1.2,30-9.9v-7.6C209.3,196.4,209.2,196,209.1,195.6z" style="fill: rgb(104, 225, 253);"/>
	<path class="st6_phone-maintenance-66" d="M209.1,195.6l-14.5,7.6l-12.2-8.3l13.6-7.6c0,0-13.8-3.8-24.1,2.6s-7.1,10.7-9.8,13.8s-77.6,41.2-77.6,41.2&#10;&#9;&#9;c-0.9,0.7-1.6,1.4-2.3,2.2l-2.1-2.2v6.4c-0.1,0.6-0.1,1.2,0,1.8v0.1l0,0c0.3,1.3,1,2.5,1.9,3.4c6.1,6,14.2,1.8,24.8-3.9&#10;&#9;&#9;s59.7-33.1,59.7-33.1s8.1-5.5,13.1-5.4c4.1,0.1,26.2,1.2,30-9.9v-7.6C209.3,196.4,209.2,196,209.1,195.6z"/>
	<polygon class="st5_phone-maintenance-66 targetColor" points="195.4,182.3 195.4,189.7 183.6,196.1 176.9,189.2 &#9;" style="fill: rgb(104, 225, 253);"/>
	<polygon class="st6_phone-maintenance-66" points="195.4,182.3 195.4,189.7 183.6,196.1 176.9,189.2 &#9;"/>
	<path class="st5_phone-maintenance-66 targetColor" d="M181.7,189.9l13.6-7.6c0,0-13.8-3.8-24.1,2.6s-7.1,10.7-9.8,13.8s-77.6,41.2-77.6,41.2s-6.9,3.4-2.4,10.1&#10;&#9;&#9;c4.5,6.7,14.1,3.3,24.7-2.4s59.7-33.1,59.7-33.1s8.1-5.5,13.1-5.3s36.2,1.7,29.6-18.6l-14.4,7.6L181.7,189.9z" style="fill: rgb(104, 225, 253);"/>
	<ellipse class="st10_phone-maintenance-66" cx="90" cy="244.9" rx="4.8" ry="3.4"/>
</g>
<g id="character_phone-maintenance-66">
	<path class="st11_phone-maintenance-66" d="M264.7,162.1c0.2-0.6,0.5-1.1,0.8-1.6c0,0,0,0.1,0.1,0.1c0,0.1,0.1,0.2,0.3,0.2c0.1,0,0.1,0,0.1-0.1l0.6-0.9&#10;&#9;&#9;c0,0.1,0,0.2,0,0.4c0.1,0.5,0.5,0.8,1,0.7c0.5,0,0.9-0.5,0.9-1c0-0.1,0-0.1,0-0.2l0.3-0.3c0,0.1,0,0.2,0,0.3c0.1,0.4,0.6,0.7,1,0.5&#10;&#9;&#9;c0.1,0,0.2-0.1,0.3-0.2c0.1-0.1,0.2-0.2,0.3-0.3c0.2,0.1,0.4,0.1,0.5,0c0.8-0.3,1.6-0.6,2.3-0.9c-0.2-0.1-0.3-0.3-0.2-0.5&#10;&#9;&#9;c0,0,0-0.1,0.1-0.1c0.9-0.7,1.8-1.4,2.8-2c0,0,0.1-0.1,0.1-0.1l0.1-0.1c0.2-0.7,0.2-1.6-0.1-2.3c0.5-0.6,0.7-1.4,0.5-2.1&#10;&#9;&#9;c-0.1,0-0.2,0-0.2-0.1c-0.1-0.1-0.3-0.3-0.4-0.4c-0.2-0.2-0.3-0.5-0.4-0.7c0-0.1,0-0.3,0.1-0.4c-0.4-0.5-0.8-1-1.2-1.4&#10;&#9;&#9;c0.9-1.6,1.4-3.4,1.3-5.2c0-0.4-0.4-0.8-0.8-0.8c-0.3,0-0.5,0.2-0.6,0.4c-0.4,0.6-0.7,1.2-1,1.8c-0.1,0.1-0.2,0.1-0.2,0.2&#10;&#9;&#9;c-1.6,3.2-3.3,6.3-5.2,9.3c-0.3,0.5-4.3,5.9-3.8,6.1C264,160.7,260.8,168.2,264.7,162.1z"/>
	<path class="st11_phone-maintenance-66" d="M265.2,160.4c0.9-0.7,1.6-1.5,2.1-2.4c0.4-0.8,1.4-1.1,2.3-0.7c0,0,0,0,0,0c0.1-0.4,0.1-0.9,0.1-1.3&#10;&#9;&#9;c0-2.2,3.5-2.3,3.5,0c0.1,1.8-0.4,3.5-1.3,5c-1.1,1.3-2.3,2.5-3.8,3.4c-0.9,0.5-2,0.2-2.4-0.7c-0.1-0.2-0.2-0.4-0.2-0.7&#10;&#9;&#9;c-0.1,0-0.1-0.1-0.2-0.1C264.5,162.2,264.5,161.1,265.2,160.4C265.1,160.4,265.2,160.4,265.2,160.4z"/>
	<path class="st12_phone-maintenance-66" d="M270.8,161.7c1.5-1,2.6-2.4,3-4.1c0.1,0.1,0.2,0.1,0.3,0.1c0,0,0,0,0,0l1.4-0.9c0.3-0.2,0.6-0.4,0.8-0.6&#10;&#9;&#9;c0.5-0.6,0-1.4-0.2-2.1c0,0,0-0.1-0.1-0.1c0.1-0.1,0.1-0.2,0.2-0.3c0.4-0.5,0.5-1.1,0.5-1.7c-0.1-0.6-0.7-1-0.9-1.5&#10;&#9;&#9;c0.1-0.6-0.2-1.2-0.8-1.5c-0.8-0.3-1.2,0.2-1.6,0.8c-0.9,1.2-1.7,2.4-2.4,3.6c-0.1,0.2,0.2,0.4,0.4,0.2c0.4-0.7,0.8-1.3,1.3-2&#10;&#9;&#9;c0.3-0.5,0.9-1.7,1.4-2c1.5-0.9,1.2,1.2,1,1.8c-0.2,0.3-0.3,0.6-0.5,0.9l-1.2,2.1c0,0,0,0,0,0.1c0,0.1,0,0.1,0,0.2&#10;&#9;&#9;c0.7,2.6-0.4,5.4-2.7,6.8C270.3,161.5,270.5,161.9,270.8,161.7z M273.9,154.6c-0.1-0.1-0.2-0.1-0.2,0c0,0,0-0.1,0-0.1&#10;&#9;&#9;c0.8-1.1,1.4-2.3,1.9-3.6l0.3,0.4c0.3,0.4,0.3,1,0.1,1.5C275.7,153.5,274.9,155.1,273.9,154.6L273.9,154.6z M273.8,157.2&#10;&#9;&#9;c0.1-0.7,0.1-1.5,0-2.2c0.7,0.4,1.4-0.1,1.8-0.7c0.1,0.3,0.2,0.6,0.3,0.9c0.1,0.4-0.1,0.8-0.5,1&#10;&#9;&#9;C274.9,156.5,274.3,156.9,273.8,157.2L273.8,157.2z"/>
	<path class="st5_phone-maintenance-66 targetColor" d="M245.8,168.7c0,0,10.2,0.5,12.8-1.9s6.5-10.1,6.5-10.1s7,4.5,7.4,7.1s-7.3,15.1-10.7,16" style="fill: rgb(104, 225, 253);"/>
	<path class="st6_phone-maintenance-66" d="M245.8,168.7c0,0,10.2,0.5,12.8-1.9s6.5-10.1,6.5-10.1s7,4.5,7.4,7.1s-7.3,15.1-10.7,16"/>
	<path class="st12_phone-maintenance-66" d="M230.4,294.2c0,0,8.6-3.8,10.7-4s5.5,0.6,2.5,4.4c0,0-9.1,5.9-10.2,6.1s-4.1-0.7-4.2-0.4s-0.3,2.6-0.3,2.6&#10;&#9;&#9;s-7.6,2.9-7.9-2.2c0-0.7,1.1-10,1.1-10"/>
	<path class="st12_phone-maintenance-66" d="M220.5,272c1.5-9.7,4.2-19.1,5.4-29c0.7-6.2,1.2-12.4,2-18.6s3.1-12.2,4.6-18.3c0.1-0.3,0-0.6-0.3-0.8&#10;&#9;&#9;l0.2-0.6c0.8-0.7,1.6-1.4,2.3-2.1l10.6,7.1c0,0-0.1,6.5-0.4,15.9c-1.2,5.5-2.2,10.4-3.6,15.5c0.3,0.3,0.4,0.8,0.3,1.2&#10;&#9;&#9;c-3.4,16.3-6,32.9-7.5,49.5c-0.1,0.6-0.4,1.1-1,1.2c-0.1,0.9-0.2,1.7-0.3,2.6c-9.2,3.5-11.2-2.6-11.2-2.6s-0.4-5.3-0.9-12.6&#10;&#9;&#9;C220.5,277.7,220.5,274.9,220.5,272z"/>
	<path class="st11_phone-maintenance-66" d="M298.4,172.8c-0.5,0.3-1.1,0.7-1.8,1.1c0.9-1.2,1.7-2.4,2.4-3.7c0.7-1.1-1-2.1-1.9-1.2&#10;&#9;&#9;c-2.3,2.5-4.9,4.9-7.6,7.1c-0.1,0.1-0.2,0.2-0.3,0.4h-1.6c-0.5,0-1,0-1.4,0c-0.1,0-0.3,0-0.4-0.1c-0.3-0.1-0.7,0-0.9,0.3&#10;&#9;&#9;c-0.2,0.1-0.4,0.2-0.6,0.3c-0.1,0-0.1,0.1-0.2,0.1c-0.5,0.1-1.1,0.1-1.6,0.2c-0.6,0.1-1.1,0.7-1,1.3c0,0.1,0.1,0.2,0.1,0.3&#10;&#9;&#9;l-0.2-0.1c-1.2-0.8-2.2,1.3-1,2c2.6,1.6,5.5,2.4,8.6,2.4c0.3,0.2,0.7,0.3,1,0.1l0.5-0.2c2.6-0.1,5.1-0.7,7.5-1.6&#10;&#9;&#9;c0.6-0.3,1.3-0.4,2-0.5l0,0C299.5,178.5,298.9,175.7,298.4,172.8z"/>
	<path class="st12_phone-maintenance-66" d="M249.2,308.4l5.1,1.8c0.3,1,1.1,1.7,2.1,1.9c0.2,0.2,0.4,0.4,0.7,0.4c2.1,0.3,4.1-0.4,6.1-1&#10;&#9;&#9;c2.5-0.8,12-4.4,9.4,2.4c-1.7,1.2-3.7,2.3-5.5,3.4c-1,0.6-2,1.2-3,1.8c-0.5,0.4-1.1,0.7-1.8,0.8c-1.4,0.2-4.7-0.8-4.8-0.5&#10;&#9;&#9;s-0.4,3-0.4,3s-8.7,3.3-9.1-2.5C247.9,319.1,249.2,308.4,249.2,308.4z"/>
	<path class="st12_phone-maintenance-66" d="M242,256.1c-1.1-17.2-1.6-34.5-5.3-51.4c-0.2-4.4-3-1.6-2.8-3.3c1.5-14.1,22.1,2.7,22.1,2.7&#10;&#9;&#9;c0.8,0.7,0.9,5,1.1,6c0.9,5.4,1.7,10.9,2.4,16.4c3.4,27.6,2.1,55.1,0.8,82.8c-4.4,4.5-7.2,5.8-14.3,2.9&#10;&#9;&#9;c-1.4-18.1-2.7-36.3-3.9-54.4C242.1,257.1,242.1,256.6,242,256.1z"/>
	<path class="st5_phone-maintenance-66 targetColor" d="M253,170.6c-0.2-0.9-2.5-1.5-3.2-1.9c-1.6-0.9-0.7-2.4-2.2-3.3c-2.3-1.3-4.6-2.5-7.1-3.4h-0.1&#10;&#9;&#9;c-3.9-0.1-10.5-0.2-10.9,5c-0.6,8,0.1,16,0.7,24.1c0.2,3.2,0.5,6.4,0.8,9.6c0.1,1.1,0.2,10.4,0.9,10.7c7.8,3.2,17.7,2.1,25.3-0.9&#10;&#9;&#9;C257.4,203.9,255.8,183.7,253,170.6z" style="fill: rgb(104, 225, 253);"/>
	<path class="st6_phone-maintenance-66" d="M253,170.6c-0.2-0.9-2.5-1.5-3.2-1.9c-1.6-0.9-0.7-2.4-2.2-3.3c-2.3-1.3-4.6-2.5-7.1-3.4h-0.1&#10;&#9;&#9;c-3.9-0.1-10.5-0.2-10.9,5c-0.6,8,0.1,16,0.7,24.1c0.2,3.2,0.5,6.4,0.8,9.6c0.1,1.1,0.2,10.4,0.9,10.7c7.8,3.2,17.7,2.1,25.3-0.9&#10;&#9;&#9;C257.4,203.9,255.8,183.7,253,170.6z"/>
	<path class="st12_phone-maintenance-66" d="M246.1,178.7c0.5,5.5,4.3,10.1,9.6,11.5c0,0.5,0.2,3.8,0.2,4.3c-6.2-1.5-10.8-9.3-11.4-15.9&#10;&#9;&#9;C244.4,177.7,246,177.7,246.1,178.7z"/>
	<path class="st11_phone-maintenance-66" d="M242.3,145.7c0.5,0.1,4.8,10.1,3.1,16.2s-12-0.2-14.6-4.8S232.6,143.2,242.3,145.7z"/>
	<path class="st12_phone-maintenance-66" d="M242.2,147.1c0,0,0,3.3-2.9,4.4s-5.3,1.8-5.1,3.1s5.2-0.2,5.2,2.9c0,2.1-0.3,4.1-0.8,6.1&#10;&#9;&#9;c-0.3,1.5-8.9-3.1-11.8-10.9s4.3-9.9,4.6-9.9s1-2.2,4.5-2.9s4.5,0.6,4.5,0.6c1.6-1,3.7-0.8,5.1,0.6c3.2,2.6,2.4,7.2-1.2,9.1&#10;&#9;&#9;L242.2,147.1z"/>
	<path class="st5_phone-maintenance-66 targetColor" d="M246.1,164.6c0,0,17.8,10.2,24.2,10.2c4.6,0,13.8-1.5,18.5-2.3c4.4,3.7,4.7,10.3,2,15.3&#10;&#9;&#9;c-7.8,1.2-30.8,4.6-38,1c-8.7-4.3-18.3-10.1-18.3-10.1S225.7,170,246.1,164.6z" style="fill: rgb(104, 225, 253);"/>
	<path class="st6_phone-maintenance-66" d="M246.1,164.6c0,0,17.8,10.2,24.2,10.2c4.6,0,13.8-1.5,18.5-2.3c4.4,3.7,4.7,10.3,2,15.3&#10;&#9;&#9;c-7.8,1.2-30.8,4.6-38,1c-8.7-4.3-18.3-10.1-18.3-10.1S225.7,170,246.1,164.6z"/>
	<path class="st11_phone-maintenance-66" d="M296.6,174c0,0,2.7-2.2,3.4-1.7s2.3,4.2,2.1,6.4s-1.4,4.1-6.8,4"/>
</g>
<g id="plant_phone-maintenance-66">
	<path class="st13_phone-maintenance-66" d="M408,180.1c2.3-0.1,4.6,0.3,6.6,1.3c2.1,1.2,3.8,3.1,4.7,5.4c1,2.1,1.5,5.2,3.6,6.6c0.8,0.4,1.6,1.1,2.1,1.8&#10;&#9;&#9;c1.1,1.5,1.3,3.4,0.6,5.1c-0.9,1.9-4.9,3-6.7,2.7"/>
	<path class="st14_phone-maintenance-66" d="M406.2,180.3c-0.7,0.1-1.3,0.2-2,0.3c-4.4,1.4-8.2,5-9.3,9.4c-0.7,2.6-0.7,5.4-0.1,8c0.5,2.1,1.8,5.8,4.4,6&#10;&#9;&#9;c3.5,0.2,4.6-3.1,5.8-5.8s2.3-5.7,5.1-6.7c2.8-1.1,6-0.3,8.1,1.8L406.2,180.3z"/>
	<path class="st13_phone-maintenance-66" d="M422.2,194.6c-2.1-2.7-3.9-5.7-5.9-8.5c-1.2-1.8-2.5-3.5-4.1-5c-4.9-2.4-11-0.2-14.6,3.9&#10;&#9;&#9;c0.5,0.1,1.2,0.2,1.6,0.3c2.2,0.8,4.1,2.2,5.6,3.9c2.2,2.4,3.8,5.3,5.7,7.8c3.1,4.1,7.2,7.5,12.5,5&#10;&#9;&#9;C426.4,200.6,423.7,196.5,422.2,194.6z"/>
	<path class="st14_phone-maintenance-66" d="M439.4,159.3c0,0,11-0.9,10.8,16.5s-16.6,5.9-13-4.5"/>
	<path class="st13_phone-maintenance-66" d="M437.8,176.4c-0.1-5.3,5.8-9.1,10.8-9.8c-0.8-3-3.9-7.9-9.9-7.8c-7.5,0.2-13.1,7.8-14.4,16.8&#10;&#9;&#9;s5.5,14.7,5.5,14.7l3.6,3.1C440.1,190.9,437.7,181.2,437.8,176.4z"/>
	<path class="st14_phone-maintenance-66" d="M467.7,188.8c-0.2-3.3-1-6.5-2.5-9.4c-1.4-2.8-4-4.9-7.1-5.5l-6.2,11.9c0,0,9.2-16.1,5.5-3.7&#10;&#9;&#9;s8.6,26.3,10.3,7.8C467.7,189.5,467.7,189.2,467.7,188.8z"/>
	<path class="st5_phone-maintenance-66 targetColor" d="M424.1,219.8c0,0-8.3,5.4-6,17.9c0.8,4.4,2,8.6,3.7,12.7c1.6,4.1,2.8,9.4,6.9,11.7c3.8,2.1,9.8,2.5,13.6,0.2&#10;&#9;&#9;c3.5-2.2,4.8-7.1,6.1-10.7c1.5-4.5,2.6-9.1,3.2-13.9C455.5,207.4,424.1,219.8,424.1,219.8z" style="fill: rgb(104, 225, 253);"/>
	<ellipse class="st12_phone-maintenance-66" cx="435.2" cy="221.6" rx="12" ry="4.4"/>
	<path class="st14_phone-maintenance-66" d="M436.2,198.4c-1.7-4.1-4.8-7.5-5.8-11.8c-1.3-6,1.1-12.2,6.2-15.8c0.9-0.7,0-2.2-0.9-1.5&#10;&#9;&#9;c-7.7,5.6-9.2,15.1-4.7,23.3c1.4,2.5,3.2,4.9,4.1,7.7c1.1,3.6-0.1,6.2-1.8,9c0-2.8-0.9-5.7-2.7-7.3c-2-1.9-5-2.2-7.4-3&#10;&#9;&#9;c-4.8-1.6-9-4.4-9.8-9.7c-0.2-1.1-1.9-0.6-1.7,0.5c0.7,4.4,3.5,7.5,7.4,9.5c2.3,1,4.7,1.8,7.1,2.5c2.1,0.8,3.8,2.5,4.7,4.6&#10;&#9;&#9;c1.1,2.6,0.4,4.4-0.3,7c-0.8,3.3-2.1,6.1,0.1,9.2c0.7,0.9,2.2,0,1.5-0.9c-3.6-5,2.2-9.7,4.1-14&#10;&#9;&#9;C437.6,204.7,437.5,201.4,436.2,198.4z"/>
	<path class="st14_phone-maintenance-66" d="M458.4,187.5c-7.6-1.3-12.8,4.6-12.4,11.9c0.2,1.8,0.5,3.7,1,5.4c0.3,1.3,1.2,3.5,1,4.7&#10;&#9;&#9;c-0.5,2.3-2.2,4.2-4.4,5.1c-3.3,1.6-5.4,3.4-6.4,7.1c-0.1,0.5,0.1,1,0.6,1.1c0.5,0.1,1-0.1,1.1-0.6l0,0c1.8-6.4,10.8-5.5,10.8-12.6&#10;&#9;&#9;c0-3.5-1.8-6.7-2-10.2c-0.4-6.1,3.6-11.4,10.1-10.2C459,189.4,459.5,187.7,458.4,187.5z"/>
	<path class="st13_phone-maintenance-66" d="M465.2,179.4c-3-5.4-8.3-6.7-13.6-5.1c-0.7,0.3-1.4,0.6-2.1,1c-13.2,9.8-3.8,31.9-1.8,31.7&#10;&#9;&#9;c6.7-0.6,6-4.5,8.3-15.6c0.8-5.2,5.3-9,10.5-8.9C466.2,181.5,465.7,180.4,465.2,179.4z"/>
	<path class="st14_phone-maintenance-66" d="M462.3,175.8c-4.5-0.7-9,1.4-11.3,5.4c-4.8,8.1-3.7,17.5-3.1,26.4c0.1,1.1,1.9,1.1,1.8,0&#10;&#9;&#9;c-0.5-6.4-1.4-12.8,0.4-19.1c0.9-3.1,1.9-6.6,4.4-8.8c2.7-2.4,6.6-3,10-1.4c-0.2-0.3-0.5-0.6-0.7-0.9&#10;&#9;&#9;C463.2,176.8,462.8,176.3,462.3,175.8z"/>
</g>
</svg>